<svg height="277" viewBox="0 0 794 277" width="794" xmlns="https://www.w3.org/2000/svg"><g fill="none" fill-rule="evenodd"><path d="m789.691 225.527c4.678 4.541 4.792 12.009.253 16.688-6.731 6.933-15.181 12.739-23.796 16.34-7.072 2.957-14.232 4.455-21.123 4.455-3.282 0-6.5-.341-9.623-1.026-19.508-4.263-32.442-22.009-31.447-43.151.549-11.157 3.594-21.38 6.542-31.264 1.17-3.927 2.274-7.633 3.204-11.331 2.176-8.527 3.859-17.747-.093-21.721-3.332-3.341-7.987-4.086-11.717-1.685-20.379 13.112-31.351 62.91-32.482 68.686-1.106 5.628-6.041 9.526-11.565 9.526-.758 0-1.522-.071-2.288-.222-6.394-1.258-10.562-7.457-9.303-13.853 1.858-9.47 4.542-18.728 7.139-27.68 4.989-17.216 9.704-33.474 8.548-50.091-.647-9.249-3.55-15.745-7.574-16.943-9.411-2.804-17.694 8.507-22.356 14.949-5.903 8.166-11.158 17.984-11.85 28.227-.958 14.217-3.413 28.352-7.385 42.038-.377 1.282-5.289 14.642-4.996 14.866-.042-.034-.061-.073-.07-.121-1.92 4.337-6.112 7.296-10.916 7.296-8.358 0-13.616-8.69-11.2-16.349.136-.432.265-.859.395-1.287-27.154 19.66-65.411 10.845-67.926-24.422-1.366-19.185 10.654-35.396 16.87-46.218-7.871-6.109-19.727-10.795-31.649-14.696-.108 8.199-1.35 17.392-1.35 17.392-3.625 28.871-14.406 79.758-47.959 79.758-26.003 0-36.243-24.847-38.558-31.92-30.924 51.705-74.516 32.968-84.959 11.321-12.075-25.042.872-58.205 11.248-75.245-11.423 2.514-22.236 4.19-32.376 5-3.666 46.767-27.867 128.368-61.278 128.368-16.637 0-30.539-12.179-34.977-42.401-19.012 26.472-39.448 20.111-49.036 7.003-8.452-11.55-18.031-43.041-2.938-93.047-22.172 8.586-45.21 19.272-65.152 31.176 9.254 8.936 20.494 22.238 25.551 37.961 12.524 38.942-21.338 74.136-56.151 74.138-37.82.002-57.756-37.252-44.546-70.578 5.828-14.709 17.918-29.274 36.08-43.517-13.193-10.879-28.736-24.365-40.265-38.619-51.856-64.121 33.468-153.654 101.16-112.819 5.581 3.364 7.378 10.619 4.01 16.198-3.366 5.581-10.618 7.374-16.196 4.009-46.108-27.812-105.326 34.858-70.624 77.774 11.579 14.315 28.679 28.537 41.985 39.394 42.057-25.144 69.927-35.022 86.325-41.148 30.243-11.283 29.744 8.647 27.61 13.23-22.537 48.628-13.087 90.3-6.148 93.591 2.944-.177 16.867-10.639 29.289-57.233 1.608-6.027 7.623-9.767 13.745-8.527 6.113 1.238 10.206 7.026 9.342 13.203-3.349 24.048-3.639 63.014 6.207 74.324 1.538 1.768 2.887 2.228 4.392 2.285 4.691-1.778 17.344-18.767 27.728-52.959 5.34-17.598 8.795-35.301 10.211-51.56-16.887-1.15-38.594-5.888-53.943-20.899-52.104-50.957 24.635-111.443 64.511-52.191 9.217 13.692 12.845 31.538 13.602 49.185.005.091 26.182-2.077 59.109-13.619 25.047-8.774 41.566-10.737 57.158-7.205 6.355 1.44 10.339 7.759 8.899 14.113-1.441 6.357-7.707 10.082-14.112 8.904-59.373-10.956-78.274 62.562-69.161 81.462 8.456 17.535 48.9 6.631 59.672-58.44 1.047-6.326 6.951-10.651 13.295-9.755 6.347.898 10.423 6.664 10.063 13.065-2.64 47.174 8.047 64.951 20.886 60.968 10.943-3.39 21.56-36.662 23.136-72.506 0 0 .454-6.975-.047-7.13-29.228-12.094-24.134-36.904-13.89-46.42 7.262-6.748 31.348-13.5 37.355 29.343 22.83 7.211 52.734 16.436 56.066 35.22 2.312 13.025-9.794 23.612-14.906 37.374-3.455 9.315-2.976 24.869 13.56 24.796 22.178-.109 35.22-26.703 38.411-45.285 1.939-11.308.044-22.735-2.135-33.864-.889-4.534-1.641-9.129-3.396-13.405-.649-1.585-.92-3.223-.878-4.824-.013-.934.073-1.857.274-2.757.752-3.733 3.293-7.035 7.079-8.59 5.199-2.138 11.036-.286 14.135 4.129l.019-.083s.041.096.116.263c.438.652.82 1.36 1.132 2.116.256.622 2.298 5.76 4.251 14.773.418 1.711 1.508 5.936 1.516 6.363 12.775-15.73 29.345-22.824 43.681-18.549 6.509 1.94 21.635 9.311 24.199 35.937 1.359-1.005 2.772-1.963 4.246-2.865 13.017-7.982 29.787-5.869 40.773 5.152 13.942 14.015 8.745 34.383 6.249 44.173-1.048 4.151-2.276 8.28-3.466 12.269-2.664 8.934-5.179 17.372-5.587 25.656-.37 7.942 3.478 16.903 12.923 18.968 11.286 2.472 24.48-4.825 32.559-13.151 4.539-4.676 12.012-4.786 16.684-.254zm-541.481-130.207c5.154 5.042 16.301 12.489 37.992 14.197-.29-5.947-1.611-28.673-13.129-41.104-22.565-24.358-48.604 3.686-24.863 26.907zm-149.178 113.808c-4.318-13.426-16.533-25.839-23.415-31.765-15.89 11.731-27.895 24.229-32.878 36.798-3.642 9.189-3.248 17.969 1.205 26.84 5.782 11.502 21.518 13.804 32.787 9.345 17.98-7.127 27.569-24.843 22.301-41.218z" fill="#ffa418"/><path d="m430.002 40.318c4.464 0 6.441-2.549 6.441-7.351v-29.564c0-.675.547-1.403 1.226-1.403h12.105c.675 0 1.226.728 1.226 1.403v32.479c0 10.039-7.464 18.118-21.145 18.118-13.535 0-20.855-8.079-20.855-18.118v-32.479c0-.675.549-1.403 1.226-1.403h12.108c.68 0 1.228.728 1.228 1.403v29.564c0 4.802 1.974 7.351 6.44 7.351zm93.409-21.077 8.365 2.874c8.005 2.728 12.224 7.973 12.224 14.654 0 9.764-8.219 16.231-19.572 16.231-9.022 0-16.181-3.045-20.997-7.17-.508-.434-.572-1.234-.163-1.765l6.669-8.644c.409-.525 1.138-.586 1.655-.163 3.25 2.659 8.077 5.101 12.182 5.101 2.909 0 4.366-1.581 4.366-2.95 0-1.504-.581-2.442-4.217-3.659l-7.423-2.515c-7.932-2.656-11.64-8.477-11.64-14.792 0-8.048 7.198-15.443 19.275-15.443 6.271.002 13.07 1.609 18.594 6.238.513.428.569 1.223.152 1.743l-6.492 8.1c-.421.518-1.163.586-1.697.179-3.784-2.886-7.644-3.617-10.335-3.617-2.475 0-3.709 1.29-3.709 2.586 0 .788.291 2.15 2.763 3.012zm105.592 21.075c4.464 0 6.438-2.549 6.438-7.351v-29.562c0-.675.547-1.403 1.229-1.403h12.107c.674 0 1.223.728 1.223 1.403v32.477c0 10.039-7.461 18.12-21.144 18.12-13.535 0-20.856-8.081-20.856-18.12v-32.477c0-.675.548-1.403 1.227-1.403h12.11c.678 0 1.227.728 1.227 1.403v29.562c0 4.802 1.975 7.351 6.439 7.351zm155.885-6.036h-15.247v6.01h21.401c.732 0 1.201.577 1.051 1.29l-2.155 10.128c-.156.712-.869 1.292-1.599 1.292-5.5 0-26.522-.003-32.018-.003-1.019 0-1.321-.916-1.321-1.318v-48.175c0-.729.593-1.504 1.321-1.504h35.603c.729 0 1.198.761 1.048 1.474l-2.157 10.128c-.152.71-.867 1.288-1.596 1.288h-19.578v6.03h18.059c.725 0 1.198.579 1.048 1.29l-2.266 10.778c-.149.71-.864 1.292-1.594 1.292zm-472.573 18.72c-.726 0-1.315-.773-1.315-1.494v-47.759c0-.719.589-1.747 1.315-1.747h35.611c.726 0 1.197 1.012 1.046 1.721l-2.142 10.041c-.153.703-.862 1.275-1.589 1.275h-19.678v7.738h17.764c.726 0 1.192.569 1.04 1.276l-2.27 10.683c-.146.706-.857 1.282-1.585 1.282h-14.949v15.49c0 .721-.59 1.494-1.316 1.494zm168.02-51c12.212 0 19.433 8.002 19.433 17.009 0 7.116-3.177 11.905-9.317 14.964l10.392 17.888c.364.626.074 1.139-.653 1.139h-13.631c-.722 0-1.591-.523-1.931-1.164l-8.41-15.756h-4.696v15.596c0 .73-.589 1.324-1.312 1.324h-11.899c-.725 0-1.311-.594-1.311-1.324v-48.201c0-.731.586-1.475 1.311-1.475zm247.999 0c12.211 0 19.436 8.002 19.436 17.009 0 7.116-3.18 11.905-9.32 14.964l10.392 17.888c.365.626.077 1.139-.649 1.139h-13.636c-.723 0-1.586-.523-1.929-1.164l-8.408-15.756h-4.698v15.596c0 .73-.589 1.324-1.314 1.324h-11.897c-.725 0-1.311-.594-1.311-1.324v-48.201c0-.731.586-1.475 1.311-1.475zm-61.77 1.169c.192-.644.887-1.169 1.556-1.169h15.752c.666 0 1.364.525 1.556 1.169l14.523 48.582c.191.639-.195 1.249-.86 1.249h-12.867c-.664 0-1.366-.608-1.563-1.249l-2.224-7.344h-12.998l-2.053 7.337c-.178.646-.866 1.256-1.535 1.256h-12.939c-.671 0-1.054-.61-.863-1.249zm-269.659 42.534c-10.795 11.475-30.531 10.985-40.706-1.082-7.145-8.472-8.125-21.246-2.881-30.926 5.019-9.261 15.546-14.459 25.949-13.604 10.367.854 19.614 7.558 23.118 17.436 3.375 9.521 1.419 20.706-5.48 28.176zm196.016 1.157c3.483.803 6.522-.005 8.127-.618.644-.241 1.008.289.945.79l-2.837 13.968c-6.935 0-15.067-2.678-20.012-7.484l-.014.004v-.038c-9.074 1.453-18.838-1.568-25.018-8.99-7.044-8.452-8.01-21.185-2.842-30.839 4.949-9.231 15.319-14.414 25.567-13.562 10.219.852 19.334 7.538 22.786 17.389 3.324 9.49 1.395 20.643-5.403 28.09-.418.451-.859.877-1.299 1.29zm-113.886-23.129c4.191 0 5.851-1.89 5.851-4.434 0-2.539-1.66-4.425-5.851-4.425h-7.513v8.859zm248 0c4.191 0 5.851-1.89 5.851-4.434 0-2.539-1.66-4.425-5.851-4.425h-7.513v8.859zm-55.78 7.199 4.676.006h4.682l-4.682-15.601zm-286.782 5.93c2.337-2.506-1.819 1.979 0 0 4.511-4.833 4.719-13.338.88-18.625-3.749-5.17-11.541-5.755-15.875-.958-4.306 4.766-4.594 12.868-1.082 18.153 3.612 5.438 11.566 6.341 16.077 1.43zm181.654-1.532c3.559 5.422 11.397 6.323 15.846 1.426 4.445-4.82 4.645-13.296.867-18.571-3.699-5.154-11.373-5.739-15.646-.956-4.243 4.752-4.525 12.832-1.067 18.101z" fill="#f0691a"/></g></svg>
