<svg width="137" height="130" viewBox="0 0 137 130" xmlns="https://www.w3.org/2000/svg"><title>brain</title><path d="M65.636 116.525l-3.426-.106H50.15l-1.313-10.425c-2.638.903-6.207 1.85-9.566 1.85-2.073 0-3.909-.358-5.453-1.065-5.158-2.36-9.8-8.489-11.807-11.418-3.913-.14-13.117-1.371-15.337-9.648-1.904-7.1.69-14.257 2.082-17.345-1.248-2.955-2.855-9.412 1.253-18.285 3.706-8.006 9.033-11.278 12.325-12.591.158-4.644 2.624-11.434 11.366-15.88 5.024-2.553 10.031-3.849 14.886-3.849 2.491 0 4.429.354 5.681.679C57.405 16.779 65.795 13 77.212 13c2.183 0 4.392.14 6.567.419 13.836 1.77 19.958 7.04 22.284 9.818 4.628.178 16.205 1.858 22.807 13.632 3.066 5.472 3.885 10.55 2.433 15.094-1.589 4.97-5.68 8.952-12.512 12.178-5.516 2.604-16.15 4.475-21.596 5.31.255 3.053-.191 7.589-3.504 12.492-4.381 6.484-17.39 7.776-22.628 8.032-1.38 3.084-4.134 9.7-4.808 14.815-.877 6.665-.862 8.258-.86 8.322l.241 3.413z" fill="#C83539"/></svg>
