<svg width="137" height="130" viewBox="0 0 137 130" xmlns="http://www.w3.org/2000/svg"><title>kitty</title><path d="M50.527 108.906h42.456c0-6.035-.43-7.232-10.426-7.232 1.597-4.79 8.088-16.38 11.694-16.38 3.192 0 6.998.175 6.998 7.456 0 8.266 13.91 21.594 17.284 16.156 5.026-8.102-8.642-5.631-8.642-25.173 0-26.734 15.602-22.928 15.602-37.948 0-7.514-2.076-8.53-2.076-13.902 0-7.1 6.255-6.688 5.038-12.575-.84-4.066-1.499-7.328-1.989-12.245-.347-3.49-.458-7.208-4.082-7.059-4.259.176-5.874 7.671-12.493 8.209-6.605.536-12.238-5.623-14.794-4.744-2.535.873-1.738 7.75-.235 12.634 2.362 7.677 7.514 17.659-1.879 19.162-9.393 1.503-25.549 3.006-37.196 18.41C44.139 69.08 44.569 87.158 40.007 92.75 24.693 111.518 9 103.812 9 119.427c0 6.99 11.845 12.023 13.723 9.768 1.879-2.254-15.962-8.971 4-16.907 17.055-6.78 18.578-8.164 23.804-3.382z" fill="#C83539" fill-rule="evenodd"/></svg>