<svg width="60" height="60" viewBox="0 0 60 60" xmlns="http://www.w3.org/2000/svg"><title>email</title><path d="M0 11h60v38.802H0V11zm41.677 17.643l15.422 15.052c.008-.09.027-.174.027-.264v-26.92a3.13 3.13 0 0 0-.048-.481L41.677 28.643zm12.21-14.768H5.754c-.25 0-.49.036-.724.092l24.79 20.386 24.79-20.386a3.107 3.107 0 0 0-.723-.092zM2.901 43.695l15.422-15.052-15.4-12.613a3.122 3.122 0 0 0-.049.481v26.92c0 .09.02.175.027.264zm3.046 3.232v.001h48.106c.322 0 .625-.061.917-.149l-16.01-15.3L30 38.666l-8.96-7.186-16.01 15.3c.292.087.595.148.917.148z"/></svg>