<svg width="60" height="60" viewBox="0 0 60 60" xmlns="http://www.w3.org/2000/svg"><title>github</title><path d="M30 0C13.433 0 0 13.433 0 30c0 13.257 8.595 24.5 20.517 28.466 1.5.274 2.047-.652 2.047-1.443 0-.714-.027-3.08-.042-5.585C14.18 53.251 12.416 47.9 12.416 47.9c-1.366-3.464-3.33-4.387-3.33-4.387-2.727-1.86.207-1.824.207-1.824 3.012.21 4.597 3.091 4.597 3.091 2.677 4.585 7.024 3.26 8.73 2.49.274-1.933 1.05-3.259 1.905-4.006-6.66-.758-13.665-3.332-13.665-14.828 0-3.277 1.17-5.95 3.085-8.05-.305-.763-1.338-3.815.297-7.944 0 0 2.516-.806 8.25 3.076 2.392-.668 4.957-.998 7.508-1.009 2.549.011 5.116.345 7.511 1.013 5.724-3.886 8.243-3.076 8.243-3.076 1.641 4.132.608 7.181.3 7.94 1.923 2.1 3.084 4.773 3.084 8.05 0 11.525-7.016 14.063-13.7 14.806 1.08.93 2.036 2.754 2.036 5.552 0 4.01-.04 7.244-.04 8.232 0 .799.546 1.733 2.066 1.44C51.412 54.492 60 43.25 60 30 60 13.433 46.567 0 30 0z"/></svg>